<?xml version="1.0"?><svg id="Layer_1" data-name="Layer 1" xmlns="http://www.w3.org/2000/svg" xmlns:xlink="http://www.w3.org/1999/xlink" viewBox="0 0 367.28 173.89" xmlns:c2pa="http://c2pa.org/manifest"><metadata><c2pa:manifest>AAAWgmp1bWIAAAAeanVtZGMycGEAEQAQgAAAqgA4m3EDYzJwYQAAABZcanVtYgAAAEdqdW1kYzJtYQARABCAAACqADibcQN1cm46YzJwYToxNGNjMjUzOC04OTViLTQ5MDgtOWEzMC1kMWJiMjVjYTdmYzkAAAADl2p1bWIAAAApanVtZGMyYXMAEQAQgAAAqgA4m3EDYzJwYS5hc3NlcnRpb25zAAAAALxqdW1iAAAARGp1bWRjYm9yABEAEIAAAKoAOJtxE2MycGEuaW5ncmVkaWVudC52MwAAAAAYYzJzaP3YFZLk24uJEN8HNx8QK9QAAABwY2JvcqNpZGM6Zm9ybWF0bWltYWdlL3N2Zyt4bWxqaW5zdGFuY2VJRHgseG1wOmlpZDo2ZGIyMzU3NC0wMzRjLTRhMDMtYmI3MS0yMTBhZjE4N2IwNzhscmVsYXRpb25zaGlwaHBhcmVudE9mAAAB4mp1bWIAAABBanVtZGNib3IAEQAQgAAAqgA4m3ETYzJwYS5hY3Rpb25zLnYyAAAAABhjMnNoH4j+XZAElpZSbtHuIM9CcQAAAZljYm9yomdhY3Rpb25zgqJmYWN0aW9ua2MycGEub3BlbmVkanBhcmFtZXRlcnOha2luZ3JlZGllbnRzgaJjdXJseC1zZWxmI2p1bWJmPWMycGEuYXNzZXJ0aW9ucy9jMnBhLmluZ3JlZGllbnQudjNkaGFzaFggNQCS3Ci5v50PjGjn6ZBPPzqfzuZuuNWbOWYY2Fk8yM+kZmFjdGlvbngdY29tLmFudGhyb3BpYy5jbGF1ZGUucHJvdmlkZWRqcGFyYW1ldGVyc6F4H2NvbS5hbnRocm9waWMub3JpZ2luLWNvbmZpZGVuY2VndW5rbm93bmtkZXNjcmlwdGlvbnhmQ2xhdWRlIHByb3ZpZGVkIHRoaXMgZmlsZSBhdCB0aGUgcmVxdWVzdCBvZiBhIHVzZXIgYW5kIG1heSBoYXZlIGNyZWF0ZWQgb3IgbW9kaWZpZWQgdGhlIGZpbGUgY29udGVudHMubXNvZnR3YXJlQWdlbnShZG5hbWVmQ2xhdWRlcmFsbEFjdGlvbnNJbmNsdWRlZPUAAADIanVtYgAAAEBqdW1kY2JvcgARABCAAACqADibcRNjMnBhLmhhc2guZGF0YQAAAAAYYzJzaJTsRF7TG1wBzqEVaPsu8fsAAACAY2JvcqVjYWxnZnNoYTI1NmNwYWRNAAAAAAAAAAAAAAAAAGRoYXNoWCBZwktD/ofA7pV2gvl1pMuTONrIw63VqbQpXWv0CnXBSmRuYW1lbmp1bWJmIG1hbmlmZXN0amV4Y2x1c2lvbnOBomVzdGFydBjkZmxlbmd0aBkeBAAAAj5qdW1iAAAAJ2p1bWRjMmNsABEAEIAAAKoAOJtxA2MycGEuY2xhaW0udjIAAAACD2Nib3KlY2FsZ2ZzaGEyNTZpc2lnbmF0dXJleE1zZWxmI2p1bWJmPS9jMnBhL3VybjpjMnBhOjE0Y2MyNTM4LTg5NWItNDkwOC05YTMwLWQxYmIyNWNhN2ZjOS9jMnBhLnNpZ25hdHVyZWppbnN0YW5jZUlEeCx4bXA6aWlkOjExM2Y3NjIyLWY2ODktNDhjNC1iMmEwLWE0YzdiMWFhZjQ2ZnJjcmVhdGVkX2Fzc2VydGlvbnODomN1cmx4LXNlbGYjanVtYmY9YzJwYS5hc3NlcnRpb25zL2MycGEuaW5ncmVkaWVudC52M2RoYXNoWCA1AJLcKLm/nQ+MaOfpkE8/Op/O5m641Zs5ZhjYWTzIz6JjdXJseCpzZWxmI2p1bWJmPWMycGEuYXNzZXJ0aW9ucy9jMnBhLmFjdGlvbnMudjJkaGFzaFggS1HZYjIf3sJPcTt6QU0dQAS/sbM3FcVVOR/ucSmX+ZeiY3VybHgpc2VsZiNqdW1iZj1jMnBhLmFzc2VydGlvbnMvYzJwYS5oYXNoLmRhdGFkaGFzaFggGjbFEU8OORwuqZcnOfh2kPeAL3G2j3v6ho5DVxvSmNp0Y2xhaW1fZ2VuZXJhdG9yX2luZm+jZG5hbWVvQW50aHJvcGljIEZpbGVzZ3ZlcnNpb25lMS4wLjBrc3BlY1ZlcnNpb25lMi40LjAAABA4anVtYgAAAChqdW1kYzJjcwARABCAAACqADibcQNjMnBhLnNpZ25hdHVyZQAAABAIY2JvctKEWQISogEmGCFZAgowggIGMIIBjaADAgECAhRA5aAK7sI50L64g/oGQgU9Z1UTADAKBggqhkjOPQQDAzBJMRcwFQYDVQQKEw5BbnRocm9waWMsIFBCQzEuMCwGA1UEAxMlQW50aHJvcGljIENvbnRlbnQgQ3JlZGVudGlhbHMgUm9vdCBDQTAeFw0yNjA4MDcxODQzNTZaFw0yODA4MDYxOTQzNTZaMEQxFzAVBgNVBAoTDkFudGhyb3BpYywgUEJDMSkwJwYDVQQDEyBBbnRocm9waWMgQ2xhdWRlIENvbnRlbnQgU2lnbmluZzBZMBMGByqGSM49AgEGCCqGSM49AwEHA0IABJh6CmvLUBgFFNU0vUKlOVtE6djd17L5SuwX0LemFisBM3dkd/3cyjxFA3Qo5S46fX0/ihY0VZ7mfb9KF703t5OjWDBWMA4GA1UdDwEB/wQEAwIHgDAVBgNVHSUEDjAMBgorBgEEAYPoXgIBMAwGA1UdEwEB/wQCMAAwHwYDVR0jBBgwFoAUzlHiBIFOZFsj+OPEz5o+nMHXXMIwCgYIKoZIzj0EAwMDZwAwZAIwMXMdFJ4BetLLVY7ORuE9noqbbAZOZn/aArXyTwFAZfKrPzxF2vPoJNf1+UCdg1XGAjBwX1zd9WGqYkqmL5SFqw1QySjr1zJfpJM9+1rdDwSPLMOPOjKuiXjoU/pUUeG9RwmhY3BhZFkNngAAAAAAAAAAAAAAAAAAAAAAAAAAAAAAAAAAAAAAAAAAAAAAAAAAAAAAAAAAAAAAAAAAAAAAAAAAAAAAAAAAAAAAAAAAAAAAAAAAAAAAAAAAAAAAAAAAAAAAAAAAAAAAAAAAAAAAAAAAAAAAAAAAAAAAAAAAAAAAAAAAAAAAAAAAAAAAAAAAAAAAAAAAAAAAAAAAAAAAAAAAAAAAAAAAAAAAAAAAAAAAAAAAAAAAAAAAAAAAAAAAAAAAAAAAAAAAAAAAAAAAAAAAAAAAAAAAAAAAAAAAAAAAAAAAAAAAAAAAAAAAAAAAAAAAAAAAAAAAAAAAAAAAAAAAAAAAAAAAAAAAAAAAAAAAAAAAAAAAAAAAAAAAAAAAAAAAAAAAAAAAAAAAAAAAAAAAAAAAAAAAAAAAAAAAAAAAAAAAAAAAAAAAAAAAAAAAAAAAAAAAAAAAAAAAAAAAAAAAAAAAAAAAAAAAAAAAAAAAAAAAAAAAAAAAAAAAAAAAAAAAAAAAAAAAAAAAAAAAAAAAAAAAAAAAAAAAAAAAAAAAAAAAAAAAAAAAAAAAAAAAAAAAAAAAAAAAAAAAAAAAAAAAAAAAAAAAAAAAAAAAAAAAAAAAAAAAAAAAAAAAAAAAAAAAAAAAAAAAAAAAAAAAAAAAAAAAAAAAAAAAAAAAAAAAAAAAAAAAAAAAAAAAAAAAAAAAAAAAAAAAAAAAAAAAAAAAAAAAAAAAAAAAAAAAAAAAAAAAAAAAAAAAAAAAAAAAAAAAAAAAAAAAAAAAAAAAAAAAAAAAAAAAAAAAAAAAAAAAAAAAAAAAAAAAAAAAAAAAAAAAAAAAAAAAAAAAAAAAAAAAAAAAAAAAAAAAAAAAAAAAAAAAAAAAAAAAAAAAAAAAAAAAAAAAAAAAAAAAAAAAAAAAAAAAAAAAAAAAAAAAAAAAAAAAAAAAAAAAAAAAAAAAAAAAAAAAAAAAAAAAAAAAAAAAAAAAAAAAAAAAAAAAAAAAAAAAAAAAAAAAAAAAAAAAAAAAAAAAAAAAAAAAAAAAAAAAAAAAAAAAAAAAAAAAAAAAAAAAAAAAAAAAAAAAAAAAAAAAAAAAAAAAAAAAAAAAAAAAAAAAAAAAAAAAAAAAAAAAAAAAAAAAAAAAAAAAAAAAAAAAAAAAAAAAAAAAAAAAAAAAAAAAAAAAAAAAAAAAAAAAAAAAAAAAAAAAAAAAAAAAAAAAAAAAAAAAAAAAAAAAAAAAAAAAAAAAAAAAAAAAAAAAAAAAAAAAAAAAAAAAAAAAAAAAAAAAAAAAAAAAAAAAAAAAAAAAAAAAAAAAAAAAAAAAAAAAAAAAAAAAAAAAAAAAAAAAAAAAAAAAAAAAAAAAAAAAAAAAAAAAAAAAAAAAAAAAAAAAAAAAAAAAAAAAAAAAAAAAAAAAAAAAAAAAAAAAAAAAAAAAAAAAAAAAAAAAAAAAAAAAAAAAAAAAAAAAAAAAAAAAAAAAAAAAAAAAAAAAAAAAAAAAAAAAAAAAAAAAAAAAAAAAAAAAAAAAAAAAAAAAAAAAAAAAAAAAAAAAAAAAAAAAAAAAAAAAAAAAAAAAAAAAAAAAAAAAAAAAAAAAAAAAAAAAAAAAAAAAAAAAAAAAAAAAAAAAAAAAAAAAAAAAAAAAAAAAAAAAAAAAAAAAAAAAAAAAAAAAAAAAAAAAAAAAAAAAAAAAAAAAAAAAAAAAAAAAAAAAAAAAAAAAAAAAAAAAAAAAAAAAAAAAAAAAAAAAAAAAAAAAAAAAAAAAAAAAAAAAAAAAAAAAAAAAAAAAAAAAAAAAAAAAAAAAAAAAAAAAAAAAAAAAAAAAAAAAAAAAAAAAAAAAAAAAAAAAAAAAAAAAAAAAAAAAAAAAAAAAAAAAAAAAAAAAAAAAAAAAAAAAAAAAAAAAAAAAAAAAAAAAAAAAAAAAAAAAAAAAAAAAAAAAAAAAAAAAAAAAAAAAAAAAAAAAAAAAAAAAAAAAAAAAAAAAAAAAAAAAAAAAAAAAAAAAAAAAAAAAAAAAAAAAAAAAAAAAAAAAAAAAAAAAAAAAAAAAAAAAAAAAAAAAAAAAAAAAAAAAAAAAAAAAAAAAAAAAAAAAAAAAAAAAAAAAAAAAAAAAAAAAAAAAAAAAAAAAAAAAAAAAAAAAAAAAAAAAAAAAAAAAAAAAAAAAAAAAAAAAAAAAAAAAAAAAAAAAAAAAAAAAAAAAAAAAAAAAAAAAAAAAAAAAAAAAAAAAAAAAAAAAAAAAAAAAAAAAAAAAAAAAAAAAAAAAAAAAAAAAAAAAAAAAAAAAAAAAAAAAAAAAAAAAAAAAAAAAAAAAAAAAAAAAAAAAAAAAAAAAAAAAAAAAAAAAAAAAAAAAAAAAAAAAAAAAAAAAAAAAAAAAAAAAAAAAAAAAAAAAAAAAAAAAAAAAAAAAAAAAAAAAAAAAAAAAAAAAAAAAAAAAAAAAAAAAAAAAAAAAAAAAAAAAAAAAAAAAAAAAAAAAAAAAAAAAAAAAAAAAAAAAAAAAAAAAAAAAAAAAAAAAAAAAAAAAAAAAAAAAAAAAAAAAAAAAAAAAAAAAAAAAAAAAAAAAAAAAAAAAAAAAAAAAAAAAAAAAAAAAAAAAAAAAAAAAAAAAAAAAAAAAAAAAAAAAAAAAAAAAAAAAAAAAAAAAAAAAAAAAAAAAAAAAAAAAAAAAAAAAAAAAAAAAAAAAAAAAAAAAAAAAAAAAAAAAAAAAAAAAAAAAAAAAAAAAAAAAAAAAAAAAAAAAAAAAAAAAAAAAAAAAAAAAAAAAAAAAAAAAAAAAAAAAAAAAAAAAAAAAAAAAAAAAAAAAAAAAAAAAAAAAAAAAAAAAAAAAAAAAAAAAAAAAAAAAAAAAAAAAAAAAAAAAAAAAAAAAAAAAAAAAAAAAAAAAAAAAAAAAAAAAAAAAAAAAAAAAAAAAAAAAAAAAAAAAAAAAAAAAAAAAAAAAAAAAAAAAAAAAAAAAAAAAAAAAAAAAAAAAAAAAAAAAAAAAAAAAAAAAAAAAAAAAAAAAAAAAAAAAAAAAAAAAAAAAAAAAAAAAAAAAAAAAAAAAAAAAAAAAAAAAAAAAAAAAAAAAAAAAAAAAAAAAAAAAAAAAAAAAAAAAAAAAAAAAAAAAAAAAAAAAAAAAAAAAAAAAAAAAAAAAAAAAAAAAAAAAAAAAAAAAAAAAAAAAAAAAAAAAAAAAAAAAAAAAAAAAAAAAAAAAAAAAAAAAAAAAAAAAAAAAAAAAAAAAAAAAAAAAAAAAAAAAAAAAAAAAAAAAAAAAAAAAAAAAAAAAAAAAAAAAAAAAAAAAAAAAAAAAAAAAAAAAAAAAAAAAAAAAAAAAAAAAAAAAAAAAAAAAAAAAAAAAAAAAAAAAAAAAAAAAAAAAAAAAAAAAAAAAAAAAAAAAAAAAAAAAAAAAAAAAAAAAAAAAAAAAAAAAAAAAAAAAAAAAAAAAAAAAAAAAAAAAAAAAAAAAAAAAAAAAAAAAAAAAAAAAAAAAAAAAAAAAAAAAAAAAAAAAAAAAAAAAAAAAAAAAAAAAAAAAAAAAAAAAAAAAAAAAAAAAAAAAAAAAAAAAAAAAAAAAAAAAAAAAAAAAAAAAAAAAAAAAAAAAAAAAAAAAAAAAAAAAAAAAAAAAAAAAAAAAAAAAAAAAAAAAAAAAAAAAAAAAAAAAAAAAAAAAAAAAAAAAAAAAAAAAAAAAAAAAAAAAAAAAAAAAAAAAAAAAAAAAAAAAAAAAAAAAAAAAAAAAAAAAAAAAAAAAAAAAAAAAAAAAAAAAAAAAAAAAAAAAAAAAAAAAAAAAAAAAAAAAAAAAAAAAAAAAAAAAAAAAAAAAAAAAAAAAAAAAAAAAAAAAAAAAAAAAAAAAAAAAAAAAAAAAAAAAAAAAAAAAAAAAAAAAAAAAAAAAAAAAAAAAAAAAAAAAAAAAAAAAAAAAAAAAAAAAAAAAAAAAAAAAAAAAAAAAAAAAAAAAAAAAAAAAAAAAAAAAAAAAAAAAAAAAAAAAAAAAAAAAAAAAAAAAAAAAAAAAAAAAAAAAAAAAAAAAAAAAAAAAAAAAAAAAAAAAAAAAAAAAAAAAAAAAAAAAAAAAAAAAAAAAAAAAAAAAAAAAAAAAAAAAAAAAAAAAAAAAAAAAAAAAAAAAAAAAAAAAAAAAAAAAAAAAAAAAAAAAAAAAAAAAAAAAAAAAAAAAAAAAAAAAAAAAAAAAAAAAAAAAAAAAAAAAAAAAAAAAAAAAAAAAAAAAAAAAAAAAAAAAAAAAAAAAAAAAAAAAAAAAAAAAAAAAAAAAAAAAAAAAAAAAAAAAAAAAAAAAAAAAAAAAAAAAAAAAAAAAAAAAAAAAAAAAAAAAAAAAAAAAAAAAAAAAAAAAAAAAAAAAAAAAAAAAAAAAAAAAAAAAAAAAAAAAAAAAAAAAAAAAAAAAAAAAAAAAAAAAAAAAAAAAAAAAAAAAAAAAAAAAAAAAAAAAAAAAAAAAAAAAAAAAAAAAAAAAAAAAAAAAAAAAAAAAAAAAAAAAAAAAAAAAAAAAAAAAAAAAAAAAAAAAAAAAAAAAAAAAAAAAAAAAAAAAAAAAAAAAAAAAAAAAAAAAAAAAAAAAAAAAAAAAAAAAAAAAAAAAAAAAAAAAAAAAAAAAAAAAAAAAAAAAAAAAAAAAAAAAAAAAAAAAAAAAAAAAAAAAAAAAAAAAAAAAAAAAAAAAAAAAAPZYQFpfje0JXgAyOkWcXTrgMD1cvNzxHNsmGK0cvC+otOCWZ5q6TykoKbhAMIF/xeIbk7tO+21xiyX0cOGFVYihAI0=</c2pa:manifest></metadata>
  <defs>
    
    <clipPath id="clippath">
      <rect class="cls-3" width="367.28" height="173.89"></rect>
    </clipPath>
  </defs>
  <g class="cls-1">
    <path class="cls-2" d="M205.29,74.58h-3.75c-.34,0-.65.14-.87.36-.22.22-.36.53-.36.87v22.39c0,.34.14.65.36.87.22.22.53.36.87.36h3.75c.34,0,.65-.14.87-.36.22-.22.36-.53.36-.87v-22.39c0-.34-.14-.65-.36-.87-.22-.22-.53-.36-.87-.36"></path>
    <path class="cls-2" d="M205.29,65.22h-3.75c-.34,0-.65.14-.87.36-.22.22-.36.53-.36.87v3.78c0,.34.14.65.36.87.22.22.53.36.87.36h3.75c.34,0,.65-.14.87-.36.22-.22.36-.53.36-.87v-3.78c0-.34-.14-.65-.36-.87-.22-.22-.53-.36-.87-.36"></path>
    <path class="cls-2" d="M195.92,65.22h-3.75c-.34,0-.65.14-.87.36-.22.22-.36.53-.36.87v8.12h-9.34c-2.57,0-4.9,1.04-6.58,2.73-1.68,1.68-2.73,4.01-2.73,6.58v6.35c0,2.57,1.04,4.9,2.73,6.58,1.68,1.68,4.01,2.73,6.58,2.73h5.92c.1,0,.2-.02.3-.06.09-.04.18-.1.25-.17l1.43-1.43,1.43-1.43h0v1.86c0,.34.14.65.36.87.22.22.53.36.87.36h3.75c.34,0,.65-.14.87-.38.22-.24.36-.58.36-.98v-31.86c0-.28-.14-.56-.36-.76-.22-.21-.53-.35-.87-.35M190.92,87.06v6.27h-10.57c-.51,0-.98-.21-1.32-.54-.34-.34-.54-.8-.54-1.31v-8.83c0-.51.21-.98.54-1.31.34-.34.8-.54,1.32-.54h10.57v6.27Z"></path>
    <path class="cls-2" d="M305.01,65.22h-3.79c-.35,0-.66.14-.88.37-.23.23-.37.54-.37.88v31.78c0,.35.14.66.37.88.23.23.54.37.88.37h3.79c.35,0,.66-.14.88-.37.23-.23.37-.54.37-.88v-31.78c0-.34-.14-.66-.37-.88-.23-.23-.54-.37-.88-.37"></path>
    <path class="cls-2" d="M271.62,76.71c.39-.39.45-.92.27-1.36-.18-.43-.6-.77-1.15-.77h-2.76s-2.76,0-2.76,0c-.09,0-.18.02-.26.05-.08.03-.15.08-.21.14l-5.74,5.73-5.74,5.73v-19.78c0-.34-.14-.65-.36-.87-.22-.22-.53-.36-.87-.36h-3.75c-.34,0-.65.14-.87.36-.22.22-.36.53-.36.87v31.81c0,.34.14.65.36.87.22.22.53.36.87.36h3.75c.34,0,.65-.14.87-.36.22-.22.36-.53.36-.87v-10.5l5.74,5.77,5.74,5.77c.06.06.13.11.21.14.08.03.17.05.26.05h2.76s2.76,0,2.76,0c.55,0,.97-.33,1.15-.77.18-.43.12-.96-.27-1.36l-5.15-5.19-5.15-5.19,5.15-5.15,5.15-5.15Z"></path>
    <path class="cls-2" d="M295.63,74.57h-14.33c-2.57,0-4.9,1.04-6.59,2.73-1.69,1.69-2.73,4.01-2.73,6.59v6.23c0,2.57,1.04,4.9,2.73,6.59,1.69,1.69,4.02,2.73,6.59,2.73h5.93c.1,0,.2-.02.3-.06.09-.04.18-.1.25-.17l1.43-1.43,1.43-1.43h0v1.87c0,.34.14.65.36.87.22.22.53.36.87.36h3.75c.34,0,.65-.14.87-.36s.36-.53.36-.87v-22.41c0-.34-.14-.65-.36-.87-.22-.22-.53-.36-.87-.36M290.63,87.01v6.22h-10.57c-.51,0-.98-.21-1.32-.54-.34-.34-.55-.8-.55-1.32v-8.71c0-.51.21-.98.55-1.31.34-.34.8-.55,1.32-.55h10.57v6.22Z"></path>
    <path class="cls-2" d="M333.95,74.94c-.22-.22-.53-.36-.88-.36h-14.36c-2.58,0-4.91,1.04-6.6,2.73-1.69,1.69-2.73,4.02-2.73,6.6v6.25c0,2.58,1.04,4.91,2.73,6.6,1.69,1.69,4.02,2.73,6.6,2.73h5.94c.1,0,.2-.02.3-.06.09-.04.18-.1.25-.17l1.43-1.44,1.43-1.44h0v1.88c0,.34.14.65.36.87.22.22.53.36.87.36h3.76c.34,0,.65-.14.88-.36.22-.22.36-.53.36-.87v-22.46c0-.34-.14-.65-.36-.88M328.07,87.03v6.23h-10.6c-.51,0-.98-.21-1.32-.55-.34-.34-.55-.8-.55-1.32v-8.73c0-.51.21-.98.55-1.32.34-.34.8-.55,1.32-.55h10.6v6.23Z"></path>
    <path class="cls-2" d="M242.69,74.58h-3.75c-.34,0-.65.14-.87.36-.22.22-.36.53-.36.87v22.39c0,.34.14.65.36.87s.53.36.87.36h3.75c.34,0,.65-.14.87-.36.22-.22.36-.53.36-.87v-22.39c0-.34-.14-.65-.36-.87-.22-.22-.53-.36-.87-.36"></path>
    <path class="cls-2" d="M242.69,65.22h-3.75c-.34,0-.65.14-.87.36-.22.22-.36.53-.36.87v3.78c0,.34.14.65.36.87.22.22.53.36.87.36h3.75c.34,0,.65-.14.87-.36.22-.22.36-.53.36-.87v-3.78c0-.34-.14-.65-.36-.87-.22-.22-.53-.36-.87-.36"></path>
    <path class="cls-2" d="M233.35,74.57h-3.75c-.34,0-.65.14-.87.36-.22.22-.36.53-.36.87v1.86h0s0,0,0,0l-1.43-1.43-1.43-1.43c-.07-.07-.16-.13-.25-.17-.09-.04-.19-.06-.3-.06h-5.93c-2.57,0-4.9,1.04-6.58,2.73-1.69,1.68-2.73,4.01-2.73,6.58v6.3c0,2.57,1.04,4.9,2.73,6.58,1.68,1.68,4.01,2.73,6.58,2.73h9.31v1.21c0,.51-.21,1-.54,1.35-.34.35-.8.58-1.31.58h-9.36c-.33,0-.63.13-.84.35-.22.22-.35.51-.35.84v1.37c0,.18.04.35.1.51.07.16.17.31.29.44l1.16,1.17,1.17,1.17c.12.13.27.22.43.29.16.07.34.1.51.1h5.63c2.57,0,4.9-1.06,6.59-2.77,1.69-1.71,2.73-4.06,2.73-6.63v-11.83s.03-11.83.03-11.83c0-.34-.14-.65-.36-.87-.22-.22-.53-.36-.87-.36M228.35,87.03v6.25h-10.56c-.51,0-.98-.21-1.31-.54-.34-.34-.54-.8-.54-1.31v-8.78c0-.51.21-.98.54-1.31.34-.34.8-.54,1.31-.54h10.56v6.25Z"></path>
    <path class="cls-2" d="M142.24,65.53c-.98-.98-2.62-.89-3.46.21-10.03,13.14-26.66,21.73-45.48,21.73-18.82,0-35.45-8.6-45.48-21.73-.84-1.1-2.48-1.19-3.46-.21l-10.26,10.26c-1.4,1.4-1.53,3.64-.28,5.17,14.12,17.14,35.5,28.06,59.44,28.07h0s.04,0,.04,0h.04c23.94-.01,45.32-10.94,59.44-28.08,1.26-1.53,1.12-3.77-.28-5.17l-10.26-10.26Z"></path>
  </g>
</svg>